<svg height="51" width="51" xmlns="http://www.w3.org/2000/svg"><g fill="#7a8799"><path d="m25.35 12.788c-7.038 0-12.869 5.73-12.869 12.868s5.73 12.868 12.868 12.868 12.868-5.83 12.868-12.868c0-7.037-5.83-12.868-12.868-12.868zm0 21.111c-4.525 0-8.244-3.72-8.244-8.243 0-4.524 3.72-8.243 8.243-8.243 4.524 0 8.244 3.72 8.244 8.243 0 4.524-3.72 8.243-8.244 8.243zm15.431-23.474a2.915 2.915 0 1 1 -4.123 4.123 2.915 2.915 0 0 1 4.123-4.123"/><path d="m46.26 4.947c-2.616-2.714-6.335-4.122-10.557-4.122h-20.71c-8.743 0-14.574 5.831-14.574 14.577v20.609c0 4.322 1.407 8.042 4.222 10.756 2.714 2.614 6.334 3.92 10.455 3.92h20.508c4.323 0 7.942-1.407 10.556-3.92 2.714-2.614 4.121-6.333 4.121-10.656v-20.709c0-4.222-1.407-7.841-4.02-10.455zm-.604 31.164c0 3.116-.905 5.63-2.714 7.339-1.81 1.709-4.323 2.613-7.339 2.613h-20.508c-3.016 0-5.529-.904-7.338-2.613-1.81-1.81-2.715-4.323-2.715-7.44v-20.607c0-3.016.905-5.529 2.715-7.339 1.709-1.709 4.322-2.613 7.338-2.613h20.71c3.015 0 5.528.904 7.338 2.714 1.709 1.81 2.714 4.323 2.714 7.238v20.71h-.201z"/></g></svg>