<svg height="42" width="51" xmlns="http://www.w3.org/2000/svg"><path d="m50.375 5.634a20.25 20.25 0 0 1 -5.836 1.6 10.184 10.184 0 0 0 4.468-5.622 20.341 20.341 0 0 1 -6.453 2.466 10.147 10.147 0 0 0 -7.417-3.208c-5.612 0-10.161 4.55-10.161 10.162 0 .796.09 1.572.263 2.315-8.446-.424-15.934-4.469-20.946-10.617a10.113 10.113 0 0 0 -1.375 5.11c0 3.524 1.794 6.634 4.52 8.457a10.125 10.125 0 0 1 -4.602-1.271l-.001.128c0 4.923 3.503 9.03 8.152 9.964a10.198 10.198 0 0 1 -4.59.174c1.294 4.037 5.046 6.975 9.492 7.057a20.386 20.386 0 0 1 -12.62 4.35c-.82 0-1.629-.048-2.424-.142a28.761 28.761 0 0 0 15.577 4.566c18.692 0 28.912-15.484 28.912-28.913 0-.44-.009-.879-.029-1.314a20.63 20.63 0 0 0 5.07-5.261z" fill="#7a8799"/></svg>